<svg width="550" height="550" viewBox="0 0 550 550" fill="none" xmlns="http://www.w3.org/2000/svg">
<rect width="550" height="550" fill="white"/>
<path d="M216.056 243.288H195.896V226.52H255.288V243.288H235.192V311H216.056V243.288ZM279.293 311H259.837V258.456H279.293V266.584H278.973C279.314 265.603 280.146 264.365 281.469 262.872C282.792 261.336 284.648 259.971 287.037 258.776C289.426 257.539 292.349 256.92 295.805 256.92C298.237 256.92 300.477 257.304 302.525 258.072C304.573 258.797 306.066 259.501 307.005 260.184L299.453 275.992C298.856 275.267 297.789 274.52 296.253 273.752C294.76 272.941 292.882 272.536 290.621 272.536C288.018 272.536 285.864 273.197 284.157 274.52C282.493 275.843 281.256 277.443 280.445 279.32C279.677 281.197 279.293 282.968 279.293 284.632V311ZM326.364 288.856C326.492 290.733 327.089 292.397 328.156 293.848C329.223 295.299 330.695 296.451 332.572 297.304C334.492 298.115 336.753 298.52 339.356 298.52C341.831 298.52 344.049 298.264 346.012 297.752C348.017 297.24 349.745 296.6 351.196 295.832C352.689 295.064 353.841 294.275 354.652 293.464L362.204 305.496C361.137 306.648 359.623 307.779 357.66 308.888C355.74 309.955 353.201 310.829 350.044 311.512C346.887 312.195 342.897 312.536 338.076 312.536C332.273 312.536 327.111 311.448 322.588 309.272C318.065 307.096 314.503 303.896 311.9 299.672C309.297 295.448 307.996 290.285 307.996 284.184C307.996 279.064 309.105 274.456 311.324 270.36C313.585 266.221 316.849 262.957 321.116 260.568C325.383 258.136 330.524 256.92 336.54 256.92C342.257 256.92 347.207 257.965 351.388 260.056C355.612 262.147 358.855 265.261 361.116 269.4C363.42 273.496 364.572 278.616 364.572 284.76C364.572 285.101 364.551 285.784 364.508 286.808C364.508 287.832 364.465 288.515 364.38 288.856H326.364ZM346.268 278.68C346.225 277.315 345.863 275.971 345.18 274.648C344.497 273.283 343.473 272.173 342.108 271.32C340.743 270.424 338.993 269.976 336.86 269.976C334.727 269.976 332.913 270.403 331.42 271.256C329.969 272.067 328.86 273.133 328.092 274.456C327.324 275.779 326.897 277.187 326.812 278.68H346.268ZM394.082 311H374.562V222.936H394.082V311ZM426.082 311H406.562V222.936H426.082V311ZM439.266 311V258.456H458.722V311H439.266ZM449.25 247.64C446.178 247.64 443.575 246.573 441.442 244.44C439.309 242.264 438.242 239.683 438.242 236.696C438.242 233.709 439.309 231.128 441.442 228.952C443.618 226.733 446.221 225.624 449.25 225.624C451.255 225.624 453.09 226.136 454.754 227.16C456.418 228.141 457.762 229.464 458.786 231.128C459.81 232.792 460.322 234.648 460.322 236.696C460.322 239.683 459.234 242.264 457.058 244.44C454.882 246.573 452.279 247.64 449.25 247.64ZM495.678 256.92C499.134 256.92 502.291 257.219 505.15 257.816C508.009 258.371 510.398 259.011 512.318 259.736C514.281 260.461 515.539 261.059 516.094 261.528L509.758 272.984C508.947 272.387 507.433 271.619 505.214 270.68C503.038 269.741 500.606 269.272 497.918 269.272C495.87 269.272 494.142 269.592 492.734 270.232C491.326 270.829 490.622 271.789 490.622 273.112C490.622 274.435 491.39 275.501 492.926 276.312C494.505 277.08 496.766 277.763 499.71 278.36C502.27 278.872 504.873 279.683 507.518 280.792C510.163 281.901 512.361 283.544 514.11 285.72C515.902 287.853 516.798 290.712 516.798 294.296C516.798 297.965 516.009 300.995 514.43 303.384C512.851 305.773 510.761 307.629 508.158 308.952C505.555 310.275 502.739 311.192 499.71 311.704C496.681 312.259 493.737 312.536 490.878 312.536C486.867 312.536 483.369 312.173 480.382 311.448C477.438 310.723 475.049 309.891 473.214 308.952C471.379 308.013 470.099 307.267 469.374 306.712L475.646 293.912C476.755 294.851 478.569 295.917 481.086 297.112C483.603 298.264 486.27 298.84 489.086 298.84C491.817 298.84 493.929 298.435 495.422 297.624C496.915 296.813 497.662 295.747 497.662 294.424C497.662 293.357 497.299 292.504 496.574 291.864C495.849 291.224 494.825 290.669 493.502 290.2C492.179 289.731 490.579 289.304 488.702 288.92C486.995 288.579 485.182 288.045 483.262 287.32C481.342 286.595 479.529 285.613 477.822 284.376C476.115 283.096 474.729 281.496 473.662 279.576C472.595 277.656 472.062 275.331 472.062 272.6C472.062 269.101 473.193 266.2 475.454 263.896C477.715 261.592 480.638 259.864 484.222 258.712C487.806 257.517 491.625 256.92 495.678 256.92Z" fill="black"/>
<rect width="140.828" height="23.7129" rx="7" transform="matrix(0.929967 0.367643 -0.308457 0.951238 39.0129 203.399)" fill="#C5749D"/>
<rect width="140.607" height="23.7455" rx="7" transform="matrix(-0.925887 0.377799 -0.321828 -0.946798 153.527 226.881)" fill="#AE8EEF"/>
<rect width="140.828" height="23.7129" rx="7" transform="matrix(0.933257 0.359209 -0.299833 0.953992 19.9163 252.772)" fill="#C5749D"/>
<rect width="140.607" height="23.7455" rx="7" transform="matrix(-0.925887 0.377799 -0.321828 -0.946798 173.752 272.971)" fill="#AE8EEF"/>
</svg>
